<svg xmlns="http://www.w3.org/2000/svg" viewBox="0 0 277.59 76.93"><defs><style>.cls-1{fill:#113a44;}.cls-2{fill:#1b8aad;}</style></defs><g id="Layer_2" data-name="Layer 2"><g id="Layer_1-2" data-name="Layer 1"><path class="cls-1" d="M0,67.3c1.06-3,2.2-6,3.15-9a8.86,8.86,0,0,0,.52-4,83,83,0,0,1,0-29.66c.69-4-1.75-6.56-2.39-9.86C.76,12-.17,9.14.23,6.51,1,1.2,5.64-1.23,10.93.61c2.94,1,5.63,2.75,8.5,4a12.33,12.33,0,0,0,4.66,1.32c13.68.11,27.36.14,41.05,0A15.43,15.43,0,0,0,70.7,4.3C73,3.34,75.08,2,77.36,1c3.4-1.4,6.83-1.64,9.75,1.12,3.07,2.91,2.63,6.58,1.94,10.23a7.32,7.32,0,0,1-.91,2.82c-3.2,4.58-2.22,9.55-1.6,14.52a75.43,75.43,0,0,1-.83,25.47,6.43,6.43,0,0,0,.85,3.46c1.58,3.59,3,7.21,2.2,11.24-1,5.21-5.35,8-10.53,6.73a19.52,19.52,0,0,1-5.91-2.48,12.62,12.62,0,0,0-7.48-2c-14,.09-28,0-42.06.08a11.67,11.67,0,0,0-4.17,1.23c-2.12.88-4.1,2.19-6.29,2.87C5.62,78.43.52,74.53,0,67.3ZM79.34,17.93c.89-.23,2.66-.22,2.91-.84A37.77,37.77,0,0,0,85,8.18c.37-2.6-1.85-4.18-4.43-3.37S75.77,7,73.3,7.92c-2.67,1-5.43,2.33-8.17,2.37q-20.4.36-40.82,0c-2.73,0-5.48-1.43-8.14-2.41C13.7,7,11.41,5.54,8.9,4.78s-4.34.64-4.24,3.31a26.46,26.46,0,0,0,1.22,6c.67,2.41,1.42,5,4.34,3.6C5.89,32,4.78,46.26,10.65,60.07c-1.09.18-3.21,0-3.49.66a22.78,22.78,0,0,0-2,7.55c-.2,3,2.1,4.67,5,3.85,2.34-.66,4.46-2.07,6.73-3a13.84,13.84,0,0,1,4.84-1.46c14-.11,28,0,42.07-.08,4.14,0,8.1,0,11.35,3a4.54,4.54,0,0,0,1.54.81c2.12.77,4.38,1.6,6.39,0s1.54-3.7,1.26-5.77a11.7,11.7,0,0,0-.63-2.39c-1.44-3.85-1.45-3.84-5.13-2.58-.08,0-.23-.18,0,0C84.72,46.31,83.64,32.07,79.34,17.93Z"/><path class="cls-2" d="M79.34,17.93c4.3,14.14,5.38,28.38-.79,42.83-.28-.23-.13,0,0,0,3.68-1.26,3.69-1.27,5.13,2.58a11.7,11.7,0,0,1,.63,2.39c.28,2.07.62,4.3-1.26,5.77s-4.27.76-6.39,0a4.54,4.54,0,0,1-1.54-.81c-3.25-3-7.21-3.08-11.35-3-14,.11-28,0-42.07.08a13.84,13.84,0,0,0-4.84,1.46c-2.27.93-4.39,2.34-6.73,3-2.86.82-5.16-.9-5-3.85a22.78,22.78,0,0,1,2-7.55c.28-.65,2.4-.48,3.49-.66C4.78,46.26,5.89,32,10.22,17.72c-2.92,1.37-3.67-1.19-4.34-3.6a26.46,26.46,0,0,1-1.22-6C4.56,5.42,6.35,4,8.9,4.78S13.7,7,16.17,7.87c2.66,1,5.41,2.36,8.14,2.41q20.42.38,40.82,0c2.74,0,5.5-1.39,8.17-2.37,2.47-.9,4.76-2.33,7.26-3.11s4.8.77,4.43,3.37a37.77,37.77,0,0,1-2.74,8.91C82,17.71,80.23,17.7,79.34,17.93Zm-60.92.52c-5.83,7.16-5.88,31.88-.07,40C24.5,52.24,24.65,25.39,18.42,18.45Z"/><path class="cls-1" d="M18.42,18.45c6.23,6.94,6.08,33.79-.07,40C12.54,50.33,12.59,25.61,18.42,18.45Z"/><path class="cls-2" d="M117.21,48.63V61.89H106.83v-40h16.56c3.48,0,7.08.66,10.14,3.6s3.72,6.36,3.72,9.72c0,3.18-.42,6.9-3.54,10s-6.84,3.48-10,3.48Zm0-8.4h3.48A6.78,6.78,0,0,0,125.07,39a4.58,4.58,0,0,0,1.32-3.66,4.86,4.86,0,0,0-1.2-3.6c-1.2-1.26-3.12-1.44-4.44-1.44h-3.54Z"/><path class="cls-2" d="M146.67,18.51a5.4,5.4,0,1,1-5.4,5.4A5.38,5.38,0,0,1,146.67,18.51Zm4.8,16.56V61.89h-9.6V35.07Z"/><path class="cls-2" d="M167.61,18.15V61.89H158V18.15Z"/><path class="cls-2" d="M183.75,18.15V61.89h-9.6V18.15Z"/><path class="cls-2" d="M217.29,58.35c-3.54,3.48-7.68,4.44-12,4.44-3.9,0-8.22-.78-11.94-4.44a13.84,13.84,0,0,1,0-19.74,16.75,16.75,0,0,1,11.94-4.44,16.94,16.94,0,0,1,12,4.44,13.84,13.84,0,0,1,0,19.74ZM201,44.07a6.12,6.12,0,0,0,4.32,10.44,6.1,6.1,0,0,0,4.26-1.8,5.92,5.92,0,0,0,1.86-4.26,6.51,6.51,0,0,0-1.86-4.38,6.16,6.16,0,0,0-8.58,0Z"/><path class="cls-2" d="M234.39,35.07l6.36,14.16,6.78-14.16h5.88l6.78,14.58,6.72-14.58h10.68l-14,26.82h-6.48l-6.72-14.76-6.42,14.76h-6.48l-13.8-26.82Z"/></g></g></svg>